<svg id="圖層_1" data-name="圖層 1" xmlns="http://www.w3.org/2000/svg" viewBox="0 0 30 38"><defs><style>.cls-1{fill:#fff;}</style></defs><title>R</title><path class="cls-1" d="M28.47,11.16a9.08,9.08,0,0,1-1.29,4.69,11.11,11.11,0,0,1-3.93,3.79,6.27,6.27,0,0,1,2.15,1.25,7.31,7.31,0,0,1,1.46,1.83,8.74,8.74,0,0,1,.85,2.18A10,10,0,0,1,28,27.19v5.49a7.35,7.35,0,0,0,.5,2.42A17.22,17.22,0,0,0,29.85,38h-7a7.41,7.41,0,0,1-.66-1.36,8.29,8.29,0,0,1-.39-1.39,12.77,12.77,0,0,1-.16-1.28c0-.39,0-.75,0-1.06V27.11a5.19,5.19,0,0,0-.28-1.68c-.19-.56-3.11,1-3.52.51s1.64-2.83.95-3.11a6.64,6.64,0,0,0-2.5-.42H6.56V38H.15V0H16.24a13.24,13.24,0,0,1,5.22,1A12,12,0,0,1,25.3,3.58a10.78,10.78,0,0,1,3.17,7.58ZM6.56,17h9.68a5.94,5.94,0,0,0,4.06-1.59,5.31,5.31,0,0,0,1.26-1.81A5.72,5.72,0,0,0,22,11.29,6.14,6.14,0,0,0,21.59,9a5.55,5.55,0,0,0-1.21-1.85A5.81,5.81,0,0,0,18.55,5.9a5.87,5.87,0,0,0-2.31-.45H6.56Z"/></svg>