<svg data-name="圖層 1" xmlns="http://www.w3.org/2000/svg" viewBox="0 0 30 38"><path d="M28.47 11.16a9.08 9.08 0 0 1-1.29 4.69 11.11 11.11 0 0 1-3.93 3.79 6.27 6.27 0 0 1 2.15 1.25 7.31 7.31 0 0 1 1.46 1.83 8.74 8.74 0 0 1 .85 2.18 10 10 0 0 1 .29 2.29v5.49a7.35 7.35 0 0 0 .5 2.42 17.22 17.22 0 0 0 1.35 2.9h-7a7.41 7.41 0 0 1-.66-1.36 8.29 8.29 0 0 1-.39-1.39 12.77 12.77 0 0 1-.16-1.28V27.11a5.19 5.19 0 0 0-.28-1.68c-.19-.56-3.11 1-3.52.51s1.64-2.83.95-3.11a6.64 6.64 0 0 0-2.5-.42H6.56V38H.15V0h16.09a13.24 13.24 0 0 1 5.22 1 12 12 0 0 1 3.84 2.58 10.78 10.78 0 0 1 3.17 7.58zM6.56 17h9.68a5.94 5.94 0 0 0 4.06-1.59 5.31 5.31 0 0 0 1.26-1.81 5.72 5.72 0 0 0 .44-2.31A6.14 6.14 0 0 0 21.59 9a5.55 5.55 0 0 0-1.21-1.85 5.81 5.81 0 0 0-1.83-1.25 5.87 5.87 0 0 0-2.31-.45H6.56z" fill="#fff"/></svg>